HIERARCHY
ROOT Hips
{
     OFFSET 69.20940 97.25570 -65.39420
     CHANNELS 6 Xposition Yposition Zposition Zrotation Xrotation Yrotation
     JOINT Spine
     {
          OFFSET 0.00000 11.89050 0.00000
          CHANNELS 3 Zrotation Xrotation Yrotation
          JOINT Spine1
          {
               OFFSET 0.00000 25.65740 0.12766
               CHANNELS 3 Zrotation Xrotation Yrotation
               JOINT HEad
               {
                    OFFSET -0.00000 8.73416 0.01134
                    CHANNELS 3 Zrotation Xrotation Yrotation
                    End Site
                    {
                         OFFSET -0.29000 12.77420 2.51395
                    }
               }
               JOINT LeftShoulder1
               {
                    OFFSET 8.99000 -0.36225 -0.22000
                    CHANNELS 3 Zrotation Xrotation Yrotation
                    JOINT LeftArm
                    {
                         OFFSET 10.28270 -0.00338 0.32212
                         CHANNELS 3 Zrotation Xrotation Yrotation
                         JOINT LeftForeArm
                         {
                              OFFSET 32.76690 0.09914 -1.42434
                              CHANNELS 3 Zrotation Xrotation Yrotation
                              JOINT LeftHand
                              {
                                   OFFSET 27.56430 0.08536 1.02216
                                   CHANNELS 3 Zrotation Xrotation Yrotation
                                   End Site
                                   {
                                        OFFSET 16.74430 -0.60000 1.50291
                                   }
                              }
                         }
                    }
               }
               JOINT RightShoulder
               {
                    OFFSET -8.99000 -0.36225 -0.22000
                    CHANNELS 3 Zrotation Xrotation Yrotation
                    JOINT RightArm
                    {
                         OFFSET -10.28270 -0.00338 0.32212
                         CHANNELS 3 Zrotation Xrotation Yrotation
                         JOINT RightForeArm
                         {
                              OFFSET -32.89710 0.09914 -1.42434
                              CHANNELS 3 Zrotation Xrotation Yrotation
                              JOINT RightHand
                              {
                                   OFFSET -27.49210 0.08536 1.02216
                                   CHANNELS 3 Zrotation Xrotation Yrotation
                                   End Site
                                   {
                                        OFFSET -16.63120 -0.60000 1.50291
                                   }
                              }
                         }
                    }
               }
          }
     }
     JOINT LeftUpLeg
     {
          OFFSET 8.94580 -8.66707 0.10165
          CHANNELS 3 Zrotation Xrotation Yrotation
          JOINT LeftLeg
          {
               OFFSET -0.00000 -44.42270 1.37270
               CHANNELS 3 Zrotation Xrotation Yrotation
               JOINT LeftFoot
               {
                    OFFSET -0.25355 -42.09240 -1.46059
                    CHANNELS 3 Zrotation Xrotation Yrotation
                    JOINT LeftToes
                    {
                         OFFSET -0.04000 -4.41509 8.49910
                         CHANNELS 3 Zrotation Xrotation Yrotation
                         End Site
                         {
                              OFFSET 0.08000 -0.04745 9.77979
                         }
                    }
               }
          }
     }
     JOINT RightUpLeg
     {
          OFFSET -8.94580 -8.66707 0.10165
          CHANNELS 3 Zrotation Xrotation Yrotation
          JOINT RightLeg
          {
               OFFSET -0.00000 -44.42270 1.37270
               CHANNELS 3 Zrotation Xrotation Yrotation
               JOINT RightFoot
               {
                    OFFSET 0.25355 -42.09240 -1.46059
                    CHANNELS 3 Zrotation Xrotation Yrotation
                    JOINT RightToes
                    {
                         OFFSET 0.04000 -4.41509 8.49910
                         CHANNELS 3 Zrotation Xrotation Yrotation
                         End Site
                         {
                              OFFSET -0.08000 -0.13745 9.77979
                         }
                    }
               }
          }
     }
}
MOTION
Frames: 10
Frame Time: 0.01667
-2.69419 86.67350 38.48280 10.01040 -6.58068 134.11301 5.16921 13.88440 -11.88940 0.89345 25.41530 -20.42220 -0.83505 1.97120 12.77360 -0.00000 0.00000 -0.00000 -53.43580 -33.88070 -92.79850 -55.44400 -2.80552 -69.66880 2.82606 9.48777 -18.00150 5.68207 2.47842 22.88670 89.68320 -34.24820 102.08200 2.98594 24.44150 87.27550 3.83989 10.31200 6.12508 25.44550 23.32450 -34.02820 -24.31600 16.40900 74.79140 -30.92950 -13.66900 -1.62132 2.96940 -30.35850 -49.38760 -18.43940 -22.23390 -12.91680 43.88650 22.19640 -29.30410 -26.17130 2.47119 2.25212 0.63086 -10.07860 4.90320 
-0.19693 88.26470 38.07200 10.14880 -5.26508 132.60400 2.05766 13.34440 -10.71140 0.33878 25.39640 -20.41360 -1.66727 2.13280 13.87740 -0.00000 0.00000 -0.00000 -54.63260 -34.25340 -93.24630 -54.82060 -2.00674 -69.16840 2.81421 9.48897 -18.06090 5.08747 2.23169 21.63040 91.31000 -33.02260 102.02400 2.23014 25.19660 88.36750 3.67217 10.30550 6.35276 28.28500 26.59130 -36.16870 -26.50400 10.15770 75.83540 -22.61760 -6.70560 0.21637 2.33542 -32.87480 -49.40020 -16.98420 -18.60210 -11.54800 42.97700 20.19900 -27.09430 -27.31440 2.52049 2.37138 0.71149 -10.99190 5.52781 
2.37456 90.18910 37.73620 10.12450 -3.45342 130.86600 -1.74007 12.62320 -9.00543 -0.49463 25.43200 -19.86270 -2.72492 2.30611 14.58910 -0.00000 0.00000 -0.00000 -55.27580 -34.47350 -92.84310 -53.94640 -1.67295 -69.06670 2.90832 9.47090 -18.04570 3.77385 1.77559 19.34070 92.82700 -30.66470 101.68400 1.66118 25.66020 89.01630 3.68336 10.31520 6.57858 30.51910 28.79460 -37.63580 -29.57030 5.41459 76.88270 -13.31210 2.31847 1.13345 2.10374 -33.30540 -50.45460 -16.07760 -13.97410 -9.71567 41.82220 16.49870 -24.10960 -28.21540 3.49205 2.70550 0.74073 -11.40830 6.06276 
4.50021 91.77360 37.58630 10.26490 -1.78857 129.59000 -4.14866 12.29080 -7.86806 -1.39462 25.72560 -18.75970 -3.88797 2.50446 14.87470 -0.00000 0.00000 -0.00000 -55.14560 -34.46960 -91.36660 -52.89930 -2.02521 -69.48730 3.07802 9.44046 -17.91950 2.09381 1.27070 16.35600 93.75140 -27.38670 100.98700 1.21215 25.68720 89.06210 3.90061 10.34150 6.72382 29.82800 26.25900 -35.46080 -33.27830 11.05600 77.81080 -8.05788 11.73640 1.27367 3.45196 -27.54320 -53.17710 -15.55010 -9.59326 -7.79396 40.88890 12.40690 -21.70460 -28.63590 4.66184 3.05322 0.70587 -11.30890 6.54386 
6.42427 93.28400 37.56820 10.21150 0.64635 127.68900 -7.78450 11.66830 -5.94331 -2.76573 25.92490 -17.05020 -5.04694 2.81099 14.69770 -0.00000 0.00000 -0.00000 -54.44450 -34.18470 -88.79440 -51.76790 -2.86065 -70.31620 3.36377 9.39067 -17.68110 0.42108 0.84677 13.11810 93.89340 -23.50850 100.03000 0.84864 25.27150 88.50030 4.24435 10.37600 6.76542 26.45280 21.04120 -29.33830 -37.93310 23.81240 77.83000 -6.40460 20.37300 1.42361 7.22780 -14.14030 -55.39050 -16.06440 -4.88205 -5.57600 40.06690 7.72466 -18.71670 -28.94100 6.27382 3.51147 0.60937 -10.76400 6.98944 
8.06301 94.58750 37.68710 10.00620 3.84264 125.15400 -12.58220 10.74890 -3.34735 -4.67351 26.03360 -14.72440 -6.10455 3.34557 14.03050 -0.00000 0.00000 -0.00000 -53.73260 -33.64210 -85.30290 -50.64230 -3.61499 -71.24420 3.87068 9.30153 -17.39220 -0.95802 0.55756 10.07320 93.36220 -19.39490 98.96690 0.57313 24.54870 87.49840 4.57162 10.40620 6.74086 22.49610 15.71390 -20.71320 -42.44670 37.38900 76.40150 -6.17757 27.44650 1.71086 11.01390 0.98624 -54.15190 -17.83710 -1.09158 -3.34653 39.49250 4.68223 -15.90260 -28.80580 7.26689 3.75331 0.46597 -9.89593 7.37059 
9.49805 95.69160 37.84820 9.85328 7.53255 122.36900 -17.62400 9.82569 -0.65156 -6.93426 26.17960 -11.82870 -6.92687 4.18399 12.86080 -0.00000 0.00000 -0.00000 -53.60810 -32.99430 -81.13440 -49.63190 -3.64560 -71.94500 4.69502 9.15383 -17.15430 -1.89295 0.39228 7.57172 92.44550 -15.39620 97.87700 0.39758 23.74690 86.36680 4.76882 10.42410 6.72194 17.67650 9.65528 -8.92560 -44.69100 53.48050 71.96530 -9.26031 30.92150 2.92497 12.64450 15.32560 -48.62500 -20.47600 1.31228 -0.97939 38.96310 4.07218 -14.03790 -28.04020 6.95962 3.56917 0.30332 -8.88210 7.63940 
10.46710 96.59440 38.06470 10.07950 10.88510 119.74600 -21.32350 9.50357 1.55111 -9.32949 26.52550 -8.45339 -7.31264 5.28800 11.19210 -0.00000 0.00000 -0.00000 -54.35480 -32.47320 -76.45120 -48.92240 -2.56687 -72.27250 5.82141 8.94757 -17.04620 -2.35681 0.31402 5.82449 91.46340 -11.81050 96.71560 0.32485 23.10610 85.46780 4.82407 10.43180 6.77214 11.96340 1.36427 6.52392 -34.97640 74.22100 55.15520 -19.40630 27.40710 5.79919 8.92256 36.11420 -33.08790 -22.94660 3.25024 1.90453 38.28570 3.32592 -13.02000 -27.03640 6.56574 3.33701 0.16157 -7.97261 7.77675 
10.99900 97.17420 38.35290 10.79370 13.50160 117.51200 -23.19860 10.01300 3.06997 -11.76310 27.07950 -4.73610 -7.04047 6.49848 9.04405 -0.00000 0.00000 -0.00000 -55.84020 -32.27570 -71.31960 -48.76880 -0.39091 -72.29340 7.08573 8.70874 -17.09260 -2.40698 0.29006 4.91034 90.66050 -8.86135 95.36490 0.34831 22.80460 85.09140 4.83058 10.43930 6.91419 6.74507 -8.39301 22.28260 84.47390 79.56730 -67.15540 -38.40670 16.46460 8.21848 -20.36950 56.88690 12.25660 -24.76800 4.81306 5.17072 37.61470 2.40242 -13.25120 -26.00340 6.00871 3.07049 0.08441 -7.45397 7.79915 
11.38440 97.60560 38.67970 11.76810 16.00270 115.41300 -24.68500 10.84920 4.45490 -14.37360 27.69470 -0.84861 -5.98806 7.59849 6.46545 -0.00000 0.00000 -0.00000 -57.70140 -32.49990 -65.79970 -49.36720 2.61751 -72.12920 8.24794 8.47819 -17.27910 -2.14361 0.30284 4.80365 90.15450 -6.67715 93.71980 0.44658 22.91240 85.36340 4.92560 10.45890 7.12759 4.06430 -17.34490 32.37790 109.71800 66.55720 -88.13800 -55.21450 10.15910 9.15647 -48.44980 54.92500 50.54160 -26.65960 6.38204 8.78921 37.09720 1.26255 -14.52030 -25.10470 5.26969 2.78973 0.10256 -7.53426 7.71753 
